{"title":"Dragon Ball Super S1E20 720p (EngDub) Download","magnet":"magnet:?xt=urn:btih:1e92f1fbd0693d82d0dcb171e5e199463ab6c550&dn=Dragon+Ball+Super+S1E20+720p+%28EngDub%29+Download&tr=udp%3A%2F%2Ftracker.leechers-paradise.org%3A6969&tr=udp%3A%2F%2Fzer0day.ch%3A1337&tr=udp%3A%2F%2Fopen.demonii.com%3A1337&tr=udp%3A%2F%2Ftracker.coppersurfer.tk%3A6969&tr=udp%3A%2F%2Fexodus.desync.com%3A6969","uploader":"digimaza","categoryP":"video","categoryS":"hd___tv_shows","size":"243644865","seeders":"5","leechers":"3","description":"Dragon Ball Super S1E20 720p (EngDub) Download <a href=\"\nhttps://s11.postimg.org/ew7zx16ar/db_super_digimaza.jpg\" rel=\"nofollow\" target=\"_NEW\">\nhttps://s11.postimg.org/ew7zx16ar/db_super_digimaza.jpg</a>\r\n\r\nGoku faces off against the God of Destruction, a powerful supernatural being, who is very eager to defeat him to fulfil a prophecy.\r\n\r\n..::File Specs::.. \r\nGeneral \r\n\r\nFormat version : Version 4 / Version 2 \r\nFile size : 232 MiB \r\nDuration : 21 min 39 s \r\nOverall bit rate : 1 500 kb/s \r\n\r\nVideo \r\nID : 1 \r\nFormat : AVC \r\nFormat/Info : Advanced Video Codec \r\nFormat profile : <a class=\"__cf_email__\" href=\"/cdn-cgi/l/email-protection\" data-cfemail=\"541c3d333c1418677a65\">[email&#xA0;protected]</a><script data-cfhash=\"f9e31\" type=\"text/javascript\">/* <![CDATA[ */!function(t,e,r,n,c,a,p){try{t=document.currentScript||function(){for(t=document.getElementsByTagName('script'),e=t.length;e--;)if(t[e].getAttribute('data-cfhash'))return t[e]}();if(t&&(c=t.previousSibling)){p=t.parentNode;if(a=c.getAttribute('data-cfemail')){for(e='',r='0x'+a.substr(0,2)|0,n=2;a.length-n;n+=2)e+='%'+('0'+('0x'+a.substr(n,2)^r).toString(16)).slice(-2);p.replaceChild(document.createTextNode(decodeURIComponent(e)),c)}p.removeChild(t)}}catch(u){}}()/* ]]> */</script> \r\nFormat settings, CABAC : Yes \r\nFormat settings, ReFrames : 1 frame \r\nCodec ID : V_MPEG4/ISO/AVC \r\nDuration : 21 min 39 s \r\nBit rate : 1 306 kb/s \r\nWidth : 1 280 pixels \r\nHeight : 720 pixels \r\nDisplay aspect ratio : 16:9 \r\nFrame rate mode : Constant \r\nFrame rate : 23.976 (24000/1001) FPS \r\nColor space : YUV \r\nChroma subsampling : 4:2:0 \r\nBit depth : 8 bits \r\nScan type : Progressive \r\nBits/(Pixel*Frame) : 0.059 \r\nStream size : 202 MiB (87%) \r\nDefault : Yes \r\n\r\nAudio \r\nID : 2 \r\nFormat : AAC \r\nFormat/Info : Advanced Audio Codec \r\nFormat profile : LC \r\nCodec ID : A_AAC \r\nDuration : 21 min 39 s \r\nBit rate : 192 kb/s \r\nChannel(s) : 2 channels \r\nChannel positions : Front: L R \r\nSampling rate : 44.1 kHz \r\nFrame rate : 43.066 FPS (1024 spf) \r\nCompression mode : Lossy \r\nStream size : 29.7 MiB (13%) \r\n\r\n================================================================ \r\nSeed Seed Seed Seed Seed Seed Seed Seed Seed Seed Seed Seed Seed \r\nTo direct download or Watch Online this file, Visit. \r\nwww.DigiMaza.com \r\nSeed Seed Seed Seed Seed Seed Seed Seed Seed Seed Seed Seed Seed \r\n================================================================","last_updated":"2017-06-05T12:01:22.255Z","parsed":{"xt":"urn:btih:1e92f1fbd0693d82d0dcb171e5e199463ab6c550","dn":"Dragon Ball Super S1E20 720p (EngDub) Download","tr":["udp://exodus.desync.com:6969","udp://open.demonii.com:1337","udp://tracker.coppersurfer.tk:6969","udp://tracker.leechers-paradise.org:6969","udp://zer0day.ch:1337"],"infoHash":"1e92f1fbd0693d82d0dcb171e5e199463ab6c550","infoHashBuffer":{"type":"Buffer","data":[30,146,241,251,208,105,61,130,208,220,177,113,229,225,153,70,58,182,197,80]},"name":"Dragon Ball Super S1E20 720p (EngDub) Download","announce":["udp://exodus.desync.com:6969","udp://open.demonii.com:1337","udp://tracker.coppersurfer.tk:6969","udp://tracker.leechers-paradise.org:6969","udp://zer0day.ch:1337"],"urlList":[]}}